<?xml version="1.0" standalone="no"?>
<!DOCTYPE svg PUBLIC "-//W3C//DTD SVG 20010904//EN"
 "http://www.w3.org/TR/2001/REC-SVG-20010904/DTD/svg10.dtd">
<svg version="1.0" xmlns="http://www.w3.org/2000/svg"
 width="400.000000pt" height="400.000000pt" viewBox="0 0 400.000000 400.000000"
 preserveAspectRatio="xMidYMid meet">

<g transform="translate(0.000000,400.000000) scale(0.100000,-0.100000)"
fill="#000000" stroke="none">
<path d="M1925 3681 c-43 -11 -54 -17 -545 -304 -245 -143 -470 -275 -500
-292 -30 -18 -95 -55 -145 -84 -109 -63 -157 -108 -193 -181 l-27 -55 0 -760
0 -760 27 -55 c35 -72 84 -118 188 -178 113 -65 476 -277 620 -362 601 -353
600 -353 726 -315 65 19 1258 716 1307 763 21 20 50 62 65 92 l27 55 0 760 c0
755 0 760 -21 806 -35 74 -87 123 -212 197 -507 300 -1116 650 -1157 664 -52
18 -109 21 -160 9z m185 -344 c25 -12 104 -57 175 -98 72 -42 225 -131 340
-199 481 -280 491 -286 523 -336 17 -25 36 -70 42 -98 7 -36 10 -242 8 -632
-3 -566 -3 -580 -24 -624 -12 -25 -36 -59 -54 -77 -17 -18 -255 -163 -529
-322 -537 -314 -559 -324 -649 -301 -58 14 -1035 582 -1076 625 -15 16 -38 50
-50 75 -21 44 -21 52 -21 655 0 602 0 611 21 656 12 26 37 61 55 78 42 40 975
587 1044 613 61 22 130 17 195 -15z"/>
<path d="M1870 3061 c-63 -37 -236 -139 -385 -226 -332 -194 -337 -197 -333
-200 20 -17 833 -485 843 -485 13 0 85 41 539 307 160 94 291 174 293 179 3 8
-805 486 -830 491 -7 2 -64 -28 -127 -66z"/>
<path d="M1032 1935 l3 -497 410 -240 c226 -132 416 -242 423 -245 9 -4 12 97
12 484 0 454 -1 491 -17 505 -10 8 -187 113 -393 232 -206 120 -390 227 -408
238 l-32 20 2 -497z"/>
<path d="M2740 2303 c-118 -69 -262 -153 -320 -187 -58 -34 -143 -84 -190
-111 -47 -27 -93 -55 -102 -63 -17 -14 -18 -51 -18 -504 0 -268 2 -488 5 -488
6 0 828 480 838 489 4 4 6 228 5 498 l-3 491 -215 -125z"/>
</g>
</svg>
