<?xml version="1.0" encoding="UTF-8"?>
<svg xmlns="http://www.w3.org/2000/svg" xmlns:xlink="http://www.w3.org/1999/xlink" width="80px" height="80px" viewBox="0 0 80 80" version="1.1">
<g id="surface1">
<path style=" stroke:none;fill-rule:nonzero;fill:rgb(0%,0%,0%);fill-opacity:1;" d="M 38.5 6.378906 C 37.640625 6.601562 37.421875 6.71875 27.601562 12.460938 C 22.699219 15.320312 18.199219 17.960938 17.601562 18.300781 C 17 18.660156 15.699219 19.398438 14.699219 19.980469 C 12.519531 21.238281 11.558594 22.140625 10.839844 23.601562 L 10.300781 24.699219 L 10.300781 55.101562 L 10.839844 56.199219 C 11.539062 57.640625 12.519531 58.558594 14.601562 59.761719 C 16.859375 61.058594 24.121094 65.300781 27 67 C 39.019531 74.058594 39 74.058594 41.519531 73.300781 C 42.820312 72.921875 66.679688 58.980469 67.660156 58.039062 C 68.078125 57.640625 68.660156 56.800781 68.960938 56.199219 L 69.5 55.101562 L 69.5 39.898438 C 69.5 24.800781 69.5 24.699219 69.078125 23.78125 C 68.378906 22.300781 67.339844 21.320312 64.839844 19.839844 C 54.699219 13.839844 42.519531 6.839844 41.699219 6.558594 C 40.660156 6.199219 39.519531 6.140625 38.5 6.378906 Z M 42.199219 13.261719 C 42.699219 13.5 44.28125 14.398438 45.699219 15.21875 C 47.140625 16.058594 50.199219 17.839844 52.5 19.199219 C 62.121094 24.800781 62.320312 24.921875 62.960938 25.921875 C 63.300781 26.421875 63.679688 27.320312 63.800781 27.878906 C 63.941406 28.601562 64 32.71875 63.960938 40.519531 C 63.898438 51.839844 63.898438 52.121094 63.480469 53 C 63.238281 53.5 62.761719 54.179688 62.398438 54.539062 C 62.058594 54.898438 57.300781 57.800781 51.820312 60.980469 C 41.078125 67.261719 40.640625 67.460938 38.839844 67 C 37.679688 66.71875 18.140625 55.359375 17.320312 54.5 C 17.019531 54.179688 16.558594 53.5 16.320312 53 C 15.898438 52.121094 15.898438 51.960938 15.898438 39.898438 C 15.898438 27.859375 15.898438 27.679688 16.320312 26.78125 C 16.558594 26.261719 17.058594 25.558594 17.421875 25.21875 C 18.261719 24.421875 36.921875 13.480469 38.300781 12.960938 C 39.519531 12.519531 40.898438 12.621094 42.199219 13.261719 Z M 42.199219 13.261719 "/>
<path style=" stroke:none;fill-rule:nonzero;fill:rgb(0%,0%,0%);fill-opacity:1;" d="M 37.398438 18.78125 C 36.140625 19.519531 32.679688 21.558594 29.699219 23.300781 C 23.058594 27.179688 22.960938 27.238281 23.039062 27.300781 C 23.441406 27.640625 39.699219 37 39.898438 37 C 40.160156 37 41.601562 36.179688 50.679688 30.859375 C 53.878906 28.980469 56.5 27.378906 56.539062 27.28125 C 56.601562 27.121094 40.441406 17.558594 39.941406 17.460938 C 39.800781 17.421875 38.660156 18.019531 37.398438 18.78125 Z M 37.398438 18.78125 "/>
<path style=" stroke:none;fill-rule:nonzero;fill:rgb(0%,0%,0%);fill-opacity:1;" d="M 20.640625 41.300781 L 20.699219 51.238281 L 28.898438 56.039062 C 33.421875 58.679688 37.21875 60.878906 37.359375 60.941406 C 37.539062 61.019531 37.601562 59 37.601562 51.261719 C 37.601562 42.179688 37.578125 41.441406 37.261719 41.160156 C 37.058594 41 33.519531 38.898438 29.398438 36.519531 C 25.28125 34.121094 21.601562 31.980469 21.238281 31.761719 L 20.601562 31.359375 Z M 20.640625 41.300781 "/>
<path style=" stroke:none;fill-rule:nonzero;fill:rgb(0%,0%,0%);fill-opacity:1;" d="M 54.800781 33.941406 C 52.441406 35.320312 49.558594 37 48.398438 37.679688 C 47.238281 38.359375 45.539062 39.359375 44.601562 39.898438 C 43.660156 40.441406 42.738281 41 42.558594 41.160156 C 42.21875 41.441406 42.199219 42.179688 42.199219 51.238281 C 42.199219 56.601562 42.238281 61 42.300781 61 C 42.421875 61 58.859375 51.398438 59.058594 51.21875 C 59.140625 51.140625 59.179688 46.660156 59.160156 41.261719 L 59.101562 31.441406 Z M 54.800781 33.941406 "/>
</g>
</svg>
